<svg fill="none" height="48" viewBox="0 0 48 48" width="48" xmlns="http://www.w3.org/2000/svg">
    <g clip-path="url(#clip0)">
        <path
            d="M28.6289 25.1471C28.6289 26.4947 29.7252 27.591 31.0728 27.591H38.9994V22.7031H31.0729C29.7253 22.7032 28.6289 23.7995 28.6289 25.1471ZM32.4093 25.2189C32.4093 25.763 31.9682 26.2041 31.4241 26.2041C30.88 26.2041 30.4389 25.763 30.4389 25.2189C30.4389 24.6748 30.88 24.2337 31.4241 24.2337C31.9682 24.2337 32.4093 24.6748 32.4093 25.2189Z"
            fill="#0036B5" />
        <path
            d="M26.2369 25.1473C26.2369 27.8146 28.4061 29.9838 31.0734 29.9838H38.5001V32.6686C38.5001 34.6263 36.9065 36.2199 34.9488 36.2199H13.0513C11.0935 36.2199 9.5 34.6263 9.5 32.6686V17.5083C9.5 15.5506 11.0935 13.957 13.0513 13.957H34.9487C36.9065 13.957 38.5 15.5506 38.5 17.5083V20.3107H31.0734C28.4061 20.3107 26.2369 22.48 26.2369 25.1473Z"
            fill="#0036B5" stroke="#0036B5" />
        <path
            d="M13.0512 11.5629C36.8535 11.5629 35.1477 11.5432 35.6703 11.6067C35.021 10.2337 33.6229 9.28125 32.006 9.28125H13.0512C10.876 9.28125 9.09642 11.0046 9.00439 13.1575C10.0662 12.1688 11.4892 11.5629 13.0512 11.5629Z"
            fill="#0036B5" />
    </g>
    <defs>
        <clipPath id="clip0">
            <rect fill="white" height="30" transform="translate(9 8)" width="30" />
        </clipPath>
    </defs>
</svg>
