<svg fill="none" height="48" viewBox="0 0 48 48" width="48" xmlns="http://www.w3.org/2000/svg">
    <path clip-rule="evenodd"
        d="M32.5073 33.627C39.584 33.627 45.3208 27.8902 45.3208 20.8135C45.3208 13.7368 39.584 8 32.5073 8C25.4306 8 19.6938 13.7368 19.6938 20.8135C19.6938 27.8902 25.4306 33.627 32.5073 33.627ZM37.2588 18.3857C37.714 18.1384 38.2827 18.3079 38.5292 18.7623C38.7763 19.2172 38.6074 19.786 38.1526 20.0328L30.0936 24.4052C29.8739 24.5238 29.6279 24.5465 29.404 24.4865C29.1681 24.4233 28.9573 24.2686 28.829 24.0392L26.3796 19.6646C26.1268 19.213 26.2878 18.6421 26.7394 18.3893C27.1914 18.1363 27.7616 18.2975 28.0147 18.7491L30.0125 22.3172L37.2588 18.3857Z"
        fill="#FF521C" fill-rule="evenodd" />
    <path clip-rule="evenodd"
        d="M25.215 33.5115C21.7712 31.5301 19.2093 28.1884 18.2627 24.2199L16.53 27.2571L20.698 29.6349C21.0774 29.8514 21.2093 30.3338 20.9928 30.713C20.8847 30.9027 20.7101 31.0304 20.515 31.0838C20.3199 31.1372 20.1044 31.1161 19.9148 31.0078L15.7468 28.6299L13.3689 32.798C13.2608 32.9878 13.086 33.1155 12.8909 33.1689C12.6958 33.2223 12.4805 33.2012 12.2909 33.0928C11.9116 32.8766 11.7796 32.394 11.9961 32.0148L14.374 27.8467L10.2059 25.4688C9.82651 25.2524 9.69458 24.77 9.91105 24.3908C10.1273 24.0117 10.6099 23.8795 10.9891 24.096L15.1572 26.4739L17.535 22.3059C17.6236 22.1507 17.7566 22.0369 17.9089 21.9714C17.8788 21.5881 17.8635 21.2006 17.8635 20.8095C17.8635 19.3163 18.087 17.8752 18.5024 16.518C16.5799 15.9835 14.4927 15.9452 12.4281 16.5098C6.33158 18.1771 2.74095 24.4709 4.40824 30.5675C6.07553 36.6641 12.3694 40.2547 18.4659 38.5874C21.3966 37.7859 23.7482 35.9153 25.215 33.5115Z"
        fill="#FF521C" fill-rule="evenodd" />
</svg>
