<svg fill="none" height="48" viewBox="0 0 48 48" width="48" xmlns="http://www.w3.org/2000/svg">
    <path
        d="M41.5171 23.3204C41.2067 22.9742 33.7402 13 24.3884 13C15.0366 13 7.57018 22.9742 7.2597 23.3204C6.91343 23.7075 6.91343 24.2925 7.2597 24.6796C7.57018 25.0258 15.0367 35 24.3884 35C33.7401 35 41.2066 25.0258 41.5171 24.6796C41.8633 24.2925 41.8633 23.7075 41.5171 23.3204ZM24.3884 31.1319C20.4563 31.1319 17.2565 27.9321 17.2565 24C17.2565 20.0679 20.4563 16.8681 24.3884 16.8681C28.3205 16.8681 31.5203 20.0679 31.5203 24C31.5203 27.9321 28.3205 31.1319 24.3884 31.1319Z"
        fill="#0036B5" />
    <path
        d="M25.4075 21.9628C25.4075 20.9378 25.9163 20.0362 26.6904 19.4816C25.9958 19.126 25.2211 18.9062 24.3887 18.9062C21.5798 18.9062 19.2944 21.1917 19.2944 24.0005C19.2944 26.8093 21.5798 29.0947 24.3887 29.0947C26.9035 29.0947 28.9849 27.2585 29.3961 24.8592C27.3444 25.5197 25.4075 23.968 25.4075 21.9628Z"
        fill="#0036B5" />
</svg>
