<svg width="30" height="30" viewBox="0 0 30 30" fill="#000" xmlns="http://www.w3.org/2000/svg">
    <path d="M19.6292 17.1471C19.6292 18.4947 20.7255 19.591 22.0731 19.591H29.9997V14.7031H22.0731C20.7255 14.7032 19.6292 15.7995 19.6292 17.1471ZM23.4096 17.2189C23.4096 17.763 22.9685 18.2041 22.4244 18.2041C21.8802 18.2041 21.4392 17.763 21.4392 17.2189C21.4392 16.6748 21.8802 16.2337 22.4244 16.2337C22.9685 16.2337 23.4096 16.6748 23.4096 17.2189Z"
    />
    <path d="M17.7369 17.1473C17.7369 19.5384 19.6822 21.4838 22.0734 21.4838H30.0001V24.6686C30.0001 26.9025 28.1827 28.7199 25.9488 28.7199H4.05129C1.8174 28.7199 0 26.9025 0 24.6686V9.50832C0 7.27443 1.8174 5.45703 4.05129 5.45703H25.9487C28.1826 5.45703 30 7.27443 30 9.50832V12.8107H22.0734C19.6823 12.8107 17.7369 14.7561 17.7369 17.1473Z"
    />
    <path d="M4.05094 3.56286C27.8533 3.56286 26.1474 3.54323 26.67 3.60675C26.0208 2.23369 24.6226 1.28125 23.0058 1.28125H4.05094C1.87573 1.28125 0.0961768 3.00461 0.00415039 5.15753C1.066 4.16878 2.48892 3.56286 4.05094 3.56286Z"/>
</svg>
